<?xml version="1.0" encoding="UTF-8" standalone="no"?>
<svg
   xmlns:dc="http://purl.org/dc/elements/1.1/"
   xmlns:cc="http://creativecommons.org/ns#"
   xmlns:rdf="http://www.w3.org/1999/02/22-rdf-syntax-ns#"
   xmlns:svg="http://www.w3.org/2000/svg"
   xmlns="http://www.w3.org/2000/svg"
   xmlns:sodipodi="http://sodipodi.sourceforge.net/DTD/sodipodi-0.dtd"
   xmlns:inkscape="http://www.inkscape.org/namespaces/inkscape"
   inkscape:version="1.0 (4035a4fb49, 2020-05-01)"
   sodipodi:docname="domicilio.svg"
   id="svg190"
   version="1.1"
   fill="currentColor"
   class="bi bi-house-fill"
   viewBox="0 0 16 16"
   height="1em"
   width="1em">
  <metadata
     id="metadata196">
    <rdf:RDF>
      <cc:Work
         rdf:about="">
        <dc:format>image/svg+xml</dc:format>
        <dc:type
           rdf:resource="http://purl.org/dc/dcmitype/StillImage" />
        <dc:title></dc:title>
      </cc:Work>
    </rdf:RDF>
  </metadata>
  <defs
     id="defs194" />
  <sodipodi:namedview
     inkscape:current-layer="svg190"
     inkscape:window-maximized="1"
     inkscape:window-y="-8"
     inkscape:window-x="-8"
     inkscape:cy="6.8224662"
     inkscape:cx="9.4536417"
     inkscape:zoom="22.627417"
     showgrid="false"
     id="namedview192"
     inkscape:window-height="1017"
     inkscape:window-width="1920"
     inkscape:pageshadow="2"
     inkscape:pageopacity="0"
     guidetolerance="10"
     gridtolerance="10"
     objecttolerance="10"
     borderopacity="1"
     bordercolor="#666666"
     pagecolor="#ffffff" />
  <path
     id="path186"
     d="M8 3.293l6 6V13.5a1.5 1.5 0 0 1-1.5 1.5h-9A1.5 1.5 0 0 1 2 13.5V9.293l6-6zm5-.793V6l-2-2V2.5a.5.5 0 0 1 .5-.5h1a.5.5 0 0 1 .5.5z"
     fill-rule="evenodd" />
  <path
     id="path188"
     d="M7.293 1.5a1 1 0 0 1 1.414 0l6.647 6.646a.5.5 0 0 1-.708.708L8 2.207 1.354 8.854a.5.5 0 1 1-.708-.708L7.293 1.5z"
     fill-rule="evenodd" />
  <path
     id="path216"
     d="M 0.89044533,8.9784584 C 0.58912434,8.9021721 0.42319883,8.5526094 0.56191132,8.286321 0.6087303,8.196442 7.3742623,1.4333801 7.4862004,1.36456 7.7812748,1.1831467 8.1843691,1.1763974 8.4889021,1.3477712 8.5410667,1.3771263 9.036494,1.8573808 9.77851,2.5978833 c 0.662696,0.6613444 1.21079,1.2024445 1.217986,1.2024445 0.0072,0 0.01558,-0.324 0.01863,-0.72 0.0054,-0.6968013 0.0069,-0.722426 0.04625,-0.7952941 0.05409,-0.1000636 0.147371,-0.1869335 0.251062,-0.2338158 0.07952,-0.035953 0.121593,-0.038299 0.687058,-0.038299 0.565465,0 0.607541,0.00235 0.687059,0.038299 0.113711,0.051413 0.202319,0.1387757 0.256239,0.2526393 l 0.04457,0.094118 1.88e-4,1.7031901 1.88e-4,1.70319 1.212257,1.214457 c 0.666742,0.6679515 1.225943,1.2418404 1.242669,1.2753092 0.110821,0.2217485 0.01253,0.5100134 -0.216421,0.6347273 -0.132959,0.072425 -0.302372,0.077129 -0.431446,0.01198 -0.06126,-0.030921 -1.013361,-0.9709291 -3.439974,-3.3962874 L 7.9995425,2.1910078 4.6348107,5.5542239 c -2.4687543,2.467642 -3.3838202,3.3709854 -3.436415,3.3923923 -0.090713,0.036922 -0.23071024,0.051397 -0.30795037,0.031842 z"
     style="fill:#ffffff;fill-opacity:1;stroke-width:0.0188235" />
  <path
     id="path218"
     d="M 3.3689021,14.98115 C 3.167582,14.960684 3.0626808,14.931256 2.8700786,14.841213 2.4862021,14.661747 2.2123863,14.346753 2.0675335,13.917975 l -0.044514,-0.131765 -0.00501,-2.249412 -0.00501,-2.2494114 2.9932411,-2.992919 2.9932411,-2.992919 2.9932403,2.992919 2.993242,2.992919 -0.005,2.2494114 -0.005,2.249412 -0.04451,0.131765 c -0.08888,0.263087 -0.205432,0.457005 -0.379015,0.630588 -0.19064,0.19064 -0.429932,0.327295 -0.69935,0.399387 l -0.157121,0.04204 -4.5929409,0.0028 c -2.5261177,0.0015 -4.6564706,-0.0037 -4.7341177,-0.0116 z"
     style="fill:#ffffff;fill-opacity:1;stroke-width:0.0188235" />
  <path
     id="path220"
     d="M 3.0827945,14.892602 C 2.6284723,14.730314 2.3641992,14.489847 2.1548109,14.048214 L 2.0290903,13.783049 2.0290554,11.55112 2.0290205,9.3191913 5.0121273,6.3363302 7.995234,3.353469 l 2.983107,2.9828612 2.983106,2.9828611 v 2.2192227 c 0,2.166641 -0.0023,2.225274 -0.09558,2.47467 -0.130548,0.348919 -0.496615,0.714987 -0.845535,0.845534 l -0.255448,0.09558 -4.7602642,-0.0019 c -3.8010317,-0.0015 -4.7928214,-0.01357 -4.9218303,-0.05965 z"
     style="fill:#e6e6e6;fill-opacity:1;stroke-width:0.0441942" />
  <path
     id="path222"
     d="M 0.67932245,8.8093505 C 0.58116539,8.7068964 0.55052454,8.6330869 0.55052454,8.4990928 c 0,-0.1739602 0.0364729,-0.2123424 3.44614116,-3.6265499 2.353544,-2.356677 3.5021882,-3.4770237 3.6229178,-3.5336651 0.1982763,-0.093023 0.5038635,-0.1042521 0.7149862,-0.026273 0.083694,0.030913 0.6489512,0.5473481 1.3986125,1.2778117 0.9237088,0.9000549 1.2652338,1.2074704 1.2847998,1.1564825 0.01466,-0.038197 0.02665,-0.3574965 0.02665,-0.709555 0,-0.9724713 0.01272,-0.9854853 0.964623,-0.9868663 l 0.677361,-9.827e-4 0.129182,0.129183 0.129183,0.1291829 v 1.7392976 1.7392977 l 0.291116,0.2859854 c 0.160113,0.1572919 0.726903,0.7368397 1.259534,1.287884 1.08423,1.1217145 1.090326,1.1321805 0.831258,1.4272429 -0.116313,0.1324734 -0.165504,0.1562176 -0.323633,0.1562176 H 14.816783 L 11.404017,5.5569979 7.9912499,2.1702093 4.5947853,5.5569979 1.1983207,8.9437865 H 1.0032206 c -0.15968589,0 -0.21847949,-0.024403 -0.32389815,-0.134436 z"
     style="fill:#e6e6e6;fill-opacity:1;stroke-width:0.0441942" />
  <path
     id="path236"
     d="M 6.0727874,14.910894 3.0675836,14.887903 2.8307558,14.756728 C 2.5544318,14.603677 2.3586397,14.389105 2.1666849,14.028961 L 2.0290205,13.770676 V 11.567031 9.3633854 l 2.9831068,-2.982861 2.9831067,-2.9828612 2.987347,2.982984 2.987347,2.9829839 -0.02243,2.2097089 c -0.01714,1.68901 -0.03637,2.248015 -0.08158,2.372272 -0.141467,0.388776 -0.511996,0.756605 -0.935583,0.928766 -0.203796,0.08283 -0.557641,0.08471 -6.8575506,0.03652 z"
     style="fill:#cccccc;fill-opacity:1;stroke-width:0.0441942" />
  <path
     id="path238"
     d="m 0.98941381,8.9420978 c -0.0144484,-0.023378 -0.063103,-0.042506 -0.10812142,-0.042506 -0.10918194,0 -0.31067959,-0.2450991 -0.31067959,-0.3779066 0,-0.065895 0.0983477,-0.2191836 0.26010174,-0.4054051 C 1.3061244,7.5689588 7.5342958,1.3916175 7.6582119,1.3445048 c 0.066993,-0.025471 0.2393242,-0.04631 0.3829584,-0.04631 0.2549531,0 0.2683346,0.00618 0.5636216,0.2603264 0.1663574,0.1431795 0.6292499,0.5758947 1.0286494,0.9615892 0.9181637,0.8866575 1.3163467,1.2529582 1.3620127,1.2529582 0.01979,0 0.04694,-0.3158565 0.06034,-0.7019032 0.02436,-0.7020677 0.05651,-0.8512365 0.200007,-0.928033 0.04211,-0.022534 0.370996,-0.055556 0.730867,-0.07338 l 0.65431,-0.032409 0.152004,0.1473284 0.152004,0.1473283 v 1.742013 1.7420133 l 1.14937,1.16986 c 1.17261,1.1935145 1.412032,1.4873408 1.332379,1.6351345 -0.148908,0.276283 -0.484166,0.3958336 -0.666287,0.2375893 C 14.70161,8.8074855 13.165608,7.284351 11.34711,5.4738669 9.5286132,3.663383 8.0152906,2.1820779 7.9841713,2.1820779 7.953052,2.1820779 6.4164541,3.6952403 4.5695095,5.544661 2.7225648,7.3940816 1.1673858,8.92465 1.113556,8.9459237 1.0543485,8.9693228 1.0053056,8.9678113 0.98941381,8.9420965 Z"
     style="fill:#f9f9f9;fill-opacity:1;stroke-width:0.0441942" />
  <path
     id="path240"
     d="M 4.2166321,14.867684 3.0233894,14.843709 2.8171775,14.722486 C 2.5671872,14.575528 2.3506962,14.330008 2.1666849,13.984767 L 2.0290205,13.726482 V 11.567031 9.4075796 L 5.0105585,6.4262872 7.9920966,3.4449946 9.6839124,5.1226818 C 10.614411,6.0454098 11.957804,7.3809433 12.66923,8.090534 l 1.293502,1.2901649 -0.02316,1.5161651 c -0.0435,2.847148 -0.05105,2.978411 -0.185729,3.225849 -0.137154,0.251997 -0.410548,0.517257 -0.682931,0.662613 l -0.192219,0.102577 -3.7344075,0.0019 c -2.0539242,10e-4 -4.2713669,-0.0089 -4.9276504,-0.0221 z"
     style="fill:#f9f9f9;fill-opacity:1;stroke-width:0.0441942" />
</svg>
