<?xml version="1.0" encoding="UTF-8" standalone="no"?>
<svg
   xmlns:dc="http://purl.org/dc/elements/1.1/"
   xmlns:cc="http://creativecommons.org/ns#"
   xmlns:rdf="http://www.w3.org/1999/02/22-rdf-syntax-ns#"
   xmlns:svg="http://www.w3.org/2000/svg"
   xmlns="http://www.w3.org/2000/svg"
   xmlns:sodipodi="http://sodipodi.sourceforge.net/DTD/sodipodi-0.dtd"
   xmlns:inkscape="http://www.inkscape.org/namespaces/inkscape"
   inkscape:version="1.0 (4035a4fb49, 2020-05-01)"
   sodipodi:docname="telefono.svg"
   id="svg226"
   version="1.1"
   fill="currentColor"
   class="bi bi-telephone-fill"
   viewBox="0 0 16 16"
   height="1em"
   width="1em">
  <metadata
     id="metadata232">
    <rdf:RDF>
      <cc:Work
         rdf:about="">
        <dc:format>image/svg+xml</dc:format>
        <dc:type
           rdf:resource="http://purl.org/dc/dcmitype/StillImage" />
        <dc:title></dc:title>
      </cc:Work>
    </rdf:RDF>
  </metadata>
  <defs
     id="defs230" />
  <sodipodi:namedview
     inkscape:current-layer="svg226"
     inkscape:window-maximized="1"
     inkscape:window-y="-8"
     inkscape:window-x="-8"
     inkscape:cy="8"
     inkscape:cx="8"
     inkscape:zoom="53.125"
     showgrid="false"
     id="namedview228"
     inkscape:window-height="1017"
     inkscape:window-width="1920"
     inkscape:pageshadow="2"
     inkscape:pageopacity="0"
     guidetolerance="10"
     gridtolerance="10"
     objecttolerance="10"
     borderopacity="1"
     bordercolor="#666666"
     pagecolor="#ffffff" />
  <path
     id="path224"
     d="M2.267.98a1.636 1.636 0 0 1 2.448.152l1.681 2.162c.309.396.418.913.296 1.4l-.513 2.053a.636.636 0 0 0 .167.604L8.65 9.654a.636.636 0 0 0 .604.167l2.052-.513a1.636 1.636 0 0 1 1.401.296l2.162 1.681c.777.604.849 1.753.153 2.448l-.97.97c-.693.693-1.73.998-2.697.658a17.47 17.47 0 0 1-6.571-4.144A17.47 17.47 0 0 1 .639 4.646c-.34-.967-.035-2.004.658-2.698l.97-.969z"
     fill-rule="evenodd" />
  <path
     id="path234"
     d="M 11.86298,15.472983 C 11.334784,15.398336 9.9594908,14.836561 8.8941176,14.260274 7.3040885,13.400186 5.9723744,12.398708 4.6958063,11.103055 3.4262048,9.8144719 2.4416774,8.4608395 1.6037469,6.8517647 1.2143195,6.103949 0.70014176,4.8777487 0.58583212,4.4242633 0.4404273,3.8474184 0.51341126,3.224407 0.79111192,2.6719381 0.96152555,2.3329104 1.0654145,2.207187 1.7208824,1.5467566 2.0633382,1.201708 2.3936879,0.8814823 2.4549926,0.83514391 3.0829544,0.36048691 3.9766468,0.41874734 4.5512913,0.97180309 4.6144672,1.0326055 5.0738498,1.6075294 5.5721414,2.2494118 c 0.9882895,1.2730808 1.0301763,1.3361603 1.1124497,1.6752941 0.030668,0.1264143 0.040794,0.2243529 0.039898,0.3858823 -0.00119,0.214816 -0.00338,0.2251756 -0.2866822,1.3552942 -0.2672233,1.065993 -0.2849807,1.147852 -0.2776665,1.28 0.014262,0.2576826 -0.024574,0.2119023 1.3286963,1.5662497 1.3582863,1.3593672 1.3057787,1.315066 1.5746931,1.3285832 0.118931,0.00598 0.2426841,-0.021166 1.2705882,-0.2786895 1.129925,-0.2830835 1.140515,-0.2853224 1.355294,-0.2865145 0.161529,-8.96e-4 0.259468,0.00923 0.385882,0.039898 0.339517,0.082366 0.401938,0.1238536 1.675294,1.1134667 0.641883,0.498851 1.199641,0.937841 1.239462,0.975533 0.508949,0.481734 0.642579,1.268516 0.323354,1.903826 -0.101434,0.201871 -0.220578,0.336491 -0.850479,0.960955 -0.670647,0.664857 -0.798905,0.771389 -1.126454,0.935648 -0.194428,0.0975 -0.445606,0.186048 -0.658824,0.232252 -0.194728,0.0422 -0.633327,0.06152 -0.814667,0.03589 z"
     style="fill:#b3b3b3;stroke-width:0.0188235" />
  <path
     id="path242"
     d="M 11.65786,15.417292 C 10.792815,15.195509 9.2945444,14.512899 8.1320452,13.810935 6.9129152,13.074775 5.8770867,12.259542 4.8274494,11.210105 3.6280764,10.010959 2.7795671,8.9068826 1.9625835,7.4823529 1.3911224,6.4859275 0.72236102,4.965484 0.57163437,4.32 0.52767623,4.13175 0.52220421,3.5835354 0.56224,3.3788235 0.62872117,3.0388907 0.80325323,2.6205655 0.98460083,2.3664926 1.2069081,2.0550342 2.3460167,0.91263759 2.5790543,0.76743671 3.148646,0.41253601 3.8554957,0.45124023 4.4096241,0.86767128 4.5483044,0.97189033 4.8389794,1.3233737 5.6301517,2.3435294 6.5054283,3.4721312 6.584698,3.5906238 6.6620796,3.886058 c 0.051217,0.1955396 0.067434,0.4390511 0.04081,0.6127655 -0.011901,0.077647 -0.137146,0.6070589 -0.2783228,1.1764706 -0.2097152,0.8458491 -0.2582472,1.067143 -0.2652211,1.2093436 -0.012637,0.2576718 0.00745,0.2905011 0.4830923,0.7894474 0.4674239,0.4903275 1.973518,1.9823855 2.0010346,1.9823855 0.01064,0 0.03559,0.020653 0.055446,0.045895 0.019855,0.025242 0.082782,0.068734 0.1398368,0.096648 0.1808964,0.088504 0.2857868,0.07268 1.4859516,-0.2241833 0.569412,-0.140845 1.098823,-0.2658189 1.17647,-0.2777195 0.26017,-0.039875 0.631829,0.015012 0.84996,0.1255251 0.05535,0.02804 0.173147,0.099737 0.261781,0.1593274 0.269695,0.1813223 2.231365,1.7025137 2.386454,1.8505947 0.178711,0.170634 0.344624,0.454977 0.421183,0.721825 0.05592,0.19491 0.05994,0.625697 0.0076,0.815029 -0.05157,0.186568 -0.134936,0.368958 -0.231443,0.506353 -0.10368,0.147609 -1.23204,1.2798 -1.441732,1.446627 -0.352509,0.280452 -0.833673,0.482615 -1.262456,0.530427 -0.329225,0.03671 -0.59744,0.02529 -0.834669,-0.03553 z"
     style="fill:#f9f9f9;stroke-width:0.0188235" />
  <path
     id="path244"
     d="M 11.943529,15.453832 C 11.484609,15.413767 10.513263,15.045085 9.3981705,14.487723 7.3084006,13.443182 5.6439793,12.158583 4.0164531,10.334118 3.0561592,9.257623 2.2541404,8.0727441 1.5803178,6.7350434 1.0505197,5.6832663 0.62192444,4.6163625 0.56612221,4.2104026 0.54072513,4.0256395 0.54009634,3.5856373 0.56501001,3.4321352 0.60934192,3.1589903 0.74503906,2.7921016 0.9053843,2.5118543 0.9501623,2.4335925 1.0623234,2.2832326 1.1546313,2.1777212 1.3933931,1.9048073 2.3578385,0.94809052 2.5032523,0.83990741 2.9927164,0.47576184 3.6119863,0.43909912 4.1882353,0.74015113 4.448493,0.87611863 4.6414569,1.0908926 5.5428301,2.2478509 6.0374748,2.8827526 6.3796395,3.3408614 6.4822946,3.505657 6.6331462,3.7478244 6.7007482,3.9947561 6.7010344,4.3046517 6.7012038,4.4913491 6.6971038,4.5112201 6.4376567,5.580291 6.1824425,6.63192 6.1552941,6.7628457 6.1552941,6.9420113 c 0,0.1902739 0.028979,0.2450375 0.2759656,0.5215181 0.236765,0.2650381 1.9396873,1.9675735 2.167168,2.1666756 0.340332,0.2978752 0.3019802,0.2993414 1.8280913,-0.069887 1.071497,-0.2592386 1.082595,-0.2615245 1.268829,-0.2613527 0.292777,2.711e-4 0.527398,0.059836 0.751719,0.1908464 0.293893,0.1716429 2.328803,1.7442773 2.564698,1.9820693 0.156372,0.15763 0.291862,0.377975 0.373125,0.606806 0.05744,0.161743 0.05896,0.174502 0.05919,0.495431 2.22e-4,0.312773 -0.0024,0.337017 -0.05251,0.48 -0.05804,0.16572 -0.160423,0.363678 -0.233545,0.451573 -0.02593,0.03116 -0.20497,0.221156 -0.397875,0.422204 -0.459461,0.478856 -0.987143,0.976539 -1.156754,1.090992 -0.48152,0.324925 -1.090932,0.484614 -1.659865,0.434945 z"
     style="fill:#f9f9f9;stroke-width:0.0188235" />
</svg>
